<svg width="24" height="24" viewBox="0 0 24 24" fill="none" xmlns="http://www.w3.org/2000/svg">
<path fill-rule="evenodd" clip-rule="evenodd" d="M11 20H13V4H11V11H4V4H2V20H4V13H11V20ZM20.1367 13.14C19.8167 13.5773 19.2781 14.18 18.5208 14.948L15.1287 18.356V19.956H22.7767V18.148H17.7048L20.3288 15.476C21.1287 14.6547 21.6781 13.9827 21.9767 13.46C22.2754 12.9373 22.4247 12.388 22.4247 11.812C22.4247 10.788 22.0728 9.98267 21.3687 9.396C20.6647 8.79867 19.8434 8.5 18.9047 8.5C17.9767 8.5 17.2141 8.68667 16.6167 9.06C16.0301 9.43333 15.4914 9.988 15.0007 10.724L16.5208 11.604C17.1287 10.6653 17.8914 10.196 18.8088 10.196C19.3314 10.196 19.7634 10.356 20.1047 10.676C20.4461 10.9853 20.6167 11.364 20.6167 11.812C20.6167 12.26 20.4568 12.7027 20.1367 13.14Z" fill="currentColor"/>
</svg>
