<svg width="24" height="24" viewBox="0 0 24 24" fill="none" xmlns="http://www.w3.org/2000/svg">
<path fill-rule="evenodd" clip-rule="evenodd" d="M11 20H13V4H11V11H4V4H2V20H4V13H11V20ZM15.608 8.67167V10.3517H19.656L17.064 13.3597V14.7997C17.448 14.6823 17.848 14.6237 18.264 14.6237C19.096 14.6237 19.7467 14.7943 20.216 15.1357C20.6853 15.477 20.92 15.9357 20.92 16.5117C20.92 17.077 20.7067 17.5143 20.28 17.8237C19.864 18.1223 19.3307 18.2717 18.68 18.2717C17.6773 18.2717 16.7173 17.9517 15.8 17.3117L15 18.8317C16.1627 19.6103 17.352 19.9997 18.568 19.9997C19.784 19.9997 20.776 19.6743 21.544 19.0237C22.3227 18.373 22.712 17.477 22.712 16.3357C22.712 15.4823 22.424 14.7517 21.848 14.1437C21.272 13.525 20.472 13.1997 19.448 13.1677L22.152 10.1437V8.67167H15.608Z" fill="currentColor"/>
</svg>
