<svg width="24" height="24" viewBox="0 0 24 24" fill="none" xmlns="http://www.w3.org/2000/svg">
<path d="M15.2421 4.51537L8.50413 11.2524L7.79712 13.3734L6.75712 14.4144L9.58512 17.2434L10.6251 16.2024L12.7471 15.4954L19.4841 8.75737L15.2421 4.51537ZM21.6061 8.05037C21.7936 8.2379 21.8989 8.49221 21.8989 8.75737C21.8989 9.02254 21.7936 9.27684 21.6061 9.46437L13.8271 17.2434L11.7071 17.9504L10.2921 19.3644C10.1046 19.5518 9.85029 19.6572 9.58512 19.6572C9.31996 19.6572 9.06565 19.5518 8.87812 19.3644L4.63513 15.1214C4.44765 14.9338 4.34234 14.6795 4.34234 14.4144C4.34234 14.1492 4.44765 13.8949 4.63513 13.7074L6.04913 12.2934L6.75612 10.1724L14.5351 2.39337C14.7227 2.2059 14.977 2.10059 15.2421 2.10059C15.5073 2.10059 15.7616 2.2059 15.9491 2.39337L21.6061 8.05037ZM15.2421 7.34337L16.6561 8.75737L11.7061 13.7074L10.2921 12.2934L15.2421 7.34337ZM4.28212 16.8904L7.11013 19.7194L5.69613 21.1334L1.45312 19.7194L4.28113 16.8904H4.28212Z" fill="currentColor"/>
</svg>
