<svg width="24" height="24" viewBox="0 0 24 24" fill="none" xmlns="http://www.w3.org/2000/svg">
<path d="M18.3633 15.5362L16.9493 14.1202L18.3633 12.7062C18.8309 12.2427 19.2024 11.6913 19.4564 11.0838C19.7103 10.4763 19.8418 9.82465 19.8433 9.1662C19.8447 8.50775 19.7161 7.8555 19.4648 7.24689C19.2134 6.63828 18.8444 6.08531 18.3788 5.61971C17.9132 5.15412 17.3602 4.78507 16.7516 4.53376C16.143 4.28245 15.4908 4.15382 14.8323 4.15526C14.1739 4.1567 13.5222 4.28819 12.9147 4.54216C12.3072 4.79614 11.7558 5.1676 11.2923 5.63523L9.87828 7.05023L8.46328 5.63623L9.87928 4.22223C11.1921 2.90941 12.9727 2.17188 14.8293 2.17188C16.6859 2.17188 18.4665 2.90941 19.7793 4.22223C21.0921 5.53505 21.8296 7.31562 21.8296 9.17223C21.8296 11.0288 21.0921 12.8094 19.7793 14.1222L18.3643 15.5362H18.3633ZM15.5353 18.3642L14.1203 19.7782C12.8075 21.0911 11.0269 21.8286 9.17028 21.8286C7.31367 21.8286 5.5331 21.0911 4.22028 19.7782C2.90746 18.4654 2.16992 16.6848 2.16992 14.8282C2.16992 12.9716 2.90746 11.1911 4.22028 9.87823L5.63528 8.46423L7.04928 9.88023L5.63528 11.2942C5.16765 11.7578 4.79618 12.3091 4.54221 12.9166C4.28823 13.5241 4.15675 14.1758 4.15531 14.8343C4.15387 15.4927 4.28249 16.145 4.53381 16.7536C4.78512 17.3622 5.15417 17.9152 5.61976 18.3808C6.08536 18.8463 6.63833 19.2154 7.24694 19.4667C7.85554 19.718 8.50779 19.8466 9.16624 19.8452C9.82469 19.8438 10.4764 19.7123 11.0839 19.4583C11.6914 19.2043 12.2427 18.8329 12.7063 18.3652L14.1203 16.9512L15.5353 18.3652V18.3642ZM14.8273 7.75723L16.2423 9.17223L9.17128 16.2422L7.75628 14.8282L14.8273 7.75823V7.75723Z" fill="currentColor"/>
</svg>
