<svg width="24" height="24" viewBox="0 0 24 24" fill="none" xmlns="http://www.w3.org/2000/svg">
<path fill-rule="evenodd" clip-rule="evenodd" d="M5.11 7.4448L2 4.3348L3.41 2.9248L20.15 19.6648L18.74 21.0748L14.73 17.0648H13V15.3348L10.73 13.0648H8V11.0648H8.73L6.66 8.9948C5.11 9.1648 3.9 10.4748 3.9 12.0648C3.9 13.7748 5.29 15.1648 7 15.1648H11V17.0648H7C4.24 17.0648 2 14.8248 2 12.0648C2 9.9748 3.29 8.1848 5.11 7.4448ZM17 7.0648H13V8.9648H17C18.71 8.9648 20.1 10.3548 20.1 12.0648C20.1 13.3348 19.33 14.4348 18.23 14.9048L19.63 16.3048C21.05 15.4248 22 13.8548 22 12.0648C22 9.3048 19.76 7.0648 17 7.0648ZM14.39 11.0648L16 12.6748V11.0648H14.39Z" fill="currentColor"/>
</svg>
